<svg width="122" height="122" viewBox="19.958301778791018 19.958301778791018 82.08339644241796 82.08339644241796" xmlns="http://www.w3.org/2000/svg" xmlns:xlink="http://www.w3.org/1999/xlink"><rect fill="none" stroke="#ff0000" stroke-width="2.3" x="29.75" y="29.75" width="62.5" height="62.5"/><svg x="34.25" y="29.25"><path fill="red" stroke="none" transform="scale(1, 1)" d="M2.52 6.14L22.88 6.14Q23.46 6.22 24.01 6.57Q24.56 6.92 25.00 7.40Q25.45 7.87 25.77 8.46Q26.10 9.05 26.21 9.58L26.21 9.58L26.21 22.21Q25.98 22.88 25.58 23.61Q25.17 24.34 24.36 24.87L24.36 24.87Q24.05 24.87 23.73 25.12Q23.41 25.37 23.10 25.43L23.10 25.43L7.53 25.43Q7.22 25.29 7.03 24.97Q6.83 24.64 6.92 24.36L6.92 24.36Q6.86 24.14 7.13 23.85Q7.39 23.55 7.64 23.50L7.64 23.50L22.54 23.50Q22.88 23.47 23.17 23.26Q23.46 23.05 23.70 22.77Q23.94 22.49 24.09 22.17Q24.25 21.84 24.28 21.59L24.28 21.59L24.28 10.34Q24.14 10.08 23.98 9.75Q23.83 9.41 23.63 9.10Q23.44 8.80 23.17 8.57Q22.90 8.35 22.54 8.29L22.54 8.29L22.43 8.07L2.52 8.07Q2.16 7.93 1.96 7.59Q1.76 7.26 1.85 7.00L1.85 7.00Q1.82 6.78 2.03 6.53Q2.24 6.28 2.52 6.14L2.52 6.14ZM4.76 11.51L17.72 11.51Q18.40 11.71 18.98 12.20Q19.57 12.69 19.99 13.30Q20.41 13.92 20.61 14.58Q20.80 15.24 20.72 15.77L20.72 15.77Q20.78 16.27 20.58 16.89Q20.38 17.50 20.01 18.08Q19.63 18.65 19.08 19.10Q18.54 19.55 17.92 19.74L17.92 19.74Q17.53 19.91 17.11 19.91L17.11 19.91Q16.74 19.91 16.32 20.05L16.32 20.05L4.98 19.86Q4.34 19.77 3.74 19.35Q3.14 18.93 2.67 18.34Q2.21 17.76 1.95 17.10Q1.68 16.44 1.74 15.91L1.74 15.91L1.74 15.57Q1.68 15.04 1.90 14.41Q2.13 13.78 2.55 13.19Q2.97 12.60 3.54 12.14Q4.12 11.68 4.76 11.51L4.76 11.51ZM5.74 13.42L5.74 13.42Q5.40 13.53 5.05 13.78Q4.70 14.03 4.41 14.34Q4.12 14.65 3.93 15.00Q3.75 15.35 3.78 15.66L3.78 15.66Q3.72 15.94 3.84 16.29Q3.95 16.64 4.19 16.96Q4.42 17.28 4.75 17.55Q5.07 17.81 5.43 17.92L5.43 17.92L17.00 17.92Q17.28 17.90 17.60 17.67Q17.92 17.45 18.17 17.15Q18.42 16.86 18.58 16.52Q18.73 16.19 18.70 15.91L18.70 15.91Q18.79 15.54 18.62 15.17Q18.45 14.79 18.16 14.44Q17.86 14.09 17.50 13.82Q17.14 13.56 16.80 13.42L16.80 13.42L5.74 13.42ZM2.52 22.96L2.52 22.96Q2.83 22.85 3.28 23.06Q3.72 23.27 3.78 23.75L3.78 23.75L3.78 27.86Q3.72 28.28 4.10 28.58Q4.48 28.87 4.87 28.73L4.87 28.73L5.18 28.84L25.23 28.84Q25.42 28.84 25.63 28.96Q25.84 29.07 26.00 29.25Q26.15 29.43 26.22 29.64Q26.29 29.85 26.21 30.02L26.21 30.02Q26.21 30.24 25.94 30.51Q25.68 30.78 25.45 30.78L25.45 30.78L4.45 30.78Q3.72 30.64 3.15 30.30Q2.58 29.96 2.10 29.15L2.10 29.15L1.85 28.62L1.85 23.61Q1.99 23.41 2.14 23.24Q2.30 23.08 2.52 22.96Z"/></svg><svg x="60.25" y="29.25"><path fill="red" stroke="none" transform="scale(1, 1)" d="M4.00 6.44L25.45 6.44Q25.73 6.58 26.03 6.91Q26.32 7.23 26.21 7.54L26.21 7.54Q26.26 7.73 25.96 8.03Q25.65 8.32 25.45 8.40L25.45 8.40L4.87 8.40Q4.73 8.40 4.52 8.46Q4.31 8.52 4.13 8.61Q3.95 8.71 3.84 8.88Q3.72 9.05 3.78 9.24L3.78 9.24L3.67 9.47L3.67 11.60L3.89 11.71L25.23 11.71Q25.37 11.71 25.56 11.83Q25.76 11.96 25.93 12.16Q26.10 12.35 26.19 12.55Q26.29 12.74 26.21 12.88L26.21 12.88Q26.26 13.05 25.98 13.32Q25.70 13.58 25.54 13.61L25.54 13.61L4.00 13.61L3.67 13.98L3.67 15.77Q3.75 16.22 4.05 16.50Q4.34 16.78 4.76 16.89L4.76 16.89L25.23 16.89Q25.34 16.89 25.55 17.01Q25.76 17.14 25.93 17.32Q26.10 17.50 26.19 17.70Q26.29 17.90 26.21 18.01L26.21 18.01Q26.15 18.23 25.91 18.50Q25.68 18.76 25.45 18.79L25.45 18.79L3.78 18.68Q3.44 18.57 3.11 18.33Q2.77 18.09 2.48 17.77Q2.18 17.45 1.99 17.07Q1.79 16.69 1.74 16.33L1.74 16.33L1.74 8.71Q1.82 8.38 2.06 8.01Q2.30 7.65 2.62 7.33Q2.94 7.00 3.30 6.77Q3.67 6.53 4.00 6.44L4.00 6.44ZM4.76 22.52L23.60 22.52Q24.00 22.63 24.42 22.87Q24.84 23.10 25.20 23.44Q25.56 23.78 25.82 24.17Q26.07 24.56 26.10 24.98L26.10 24.98L26.10 27.98Q25.98 28.42 25.72 28.86Q25.45 29.29 25.07 29.63Q24.70 29.96 24.26 30.16Q23.83 30.36 23.41 30.33L23.41 30.33L23.07 30.44L9.58 30.44Q9.60 30.19 9.56 29.88Q9.52 29.57 9.55 29.31Q9.58 29.04 9.70 28.83Q9.83 28.62 10.22 28.54L10.22 28.54L22.43 28.54Q22.68 28.51 22.99 28.44Q23.30 28.37 23.59 28.21Q23.88 28.06 24.09 27.82Q24.30 27.58 24.36 27.25L24.36 27.25L24.36 25.43Q24.22 24.98 23.79 24.77Q23.35 24.56 22.99 24.48L22.99 24.48L5.32 24.48Q4.98 24.50 4.66 24.71Q4.34 24.92 4.12 25.22Q3.89 25.51 3.79 25.86Q3.70 26.21 3.78 26.52L3.78 26.52L3.67 27.00L3.67 29.91Q3.70 30.10 3.58 30.29Q3.47 30.47 3.30 30.59Q3.14 30.72 2.94 30.78Q2.74 30.83 2.60 30.78L2.60 30.78Q2.38 30.83 2.07 30.54Q1.76 30.24 1.74 30.02L1.74 30.02L1.74 25.54Q1.96 24.90 2.41 24.25Q2.86 23.61 3.58 22.96L3.58 22.96Q3.89 22.91 4.17 22.75Q4.45 22.60 4.76 22.52L4.76 22.52Z"/></svg><svg x="34.25" y="56.25"><path fill="red" stroke="none" transform="scale(1, 1)" d="M2.55 6.50L19.82 6.50Q19.94 6.53 20.16 6.58Q20.38 6.64 20.57 6.75Q20.75 6.86 20.86 7.03Q20.97 7.20 20.89 7.42L20.89 7.42L21 7.68L21 11.71Q20.86 12.21 20.37 12.37Q19.88 12.52 19.49 12.58L19.49 12.58L4.20 12.58Q3.98 12.58 3.91 12.70Q3.84 12.83 3.84 13.00L3.84 13.00Q3.84 13.16 3.85 13.35Q3.86 13.53 3.84 13.61L3.84 13.61Q3.84 14.06 3.92 14.58Q4.00 15.10 4.59 15.26L4.59 15.26L20.02 15.26Q20.22 15.26 20.41 15.38Q20.61 15.49 20.76 15.67Q20.92 15.85 20.99 16.06Q21.06 16.27 21 16.44L21 16.44Q20.97 16.66 20.73 16.93Q20.50 17.20 20.27 17.20L20.27 17.20L3.28 17Q3.02 16.97 2.80 16.79Q2.58 16.61 2.38 16.36Q2.18 16.10 2.06 15.84Q1.93 15.57 1.90 15.35L1.90 15.35L1.90 12.04Q2.16 11.71 2.51 11.36Q2.86 11.01 3.16 10.95L3.16 10.95L18.73 10.95Q19.01 10.95 19.14 10.80Q19.26 10.64 19.29 10.43Q19.32 10.22 19.31 10.01Q19.29 9.80 19.29 9.66L19.29 9.66Q19.29 9.52 19.29 9.36L19.29 9.36Q19.29 9.16 19.24 8.98Q19.18 8.80 19.07 8.64Q18.96 8.49 18.73 8.40L18.73 8.40L2.66 8.40Q2.46 8.43 2.30 8.32Q2.13 8.21 2.00 8.03Q1.88 7.84 1.82 7.65Q1.76 7.45 1.79 7.31L1.79 7.31Q1.79 7.00 2.03 6.84Q2.27 6.67 2.55 6.50L2.55 6.50ZM24.98 6.50L24.98 6.50Q25.31 6.39 25.62 6.58Q25.93 6.78 26.15 7.20L26.15 7.20L26.15 18.90Q26.04 19.55 25.75 20.18Q25.45 20.81 24.64 21.45L24.64 21.45Q24.25 21.68 23.86 21.72Q23.46 21.76 23.04 21.90L23.04 21.90L11.26 21.90Q10.98 21.87 10.74 22.01Q10.50 22.15 10.36 22.36Q10.22 22.57 10.15 22.84Q10.08 23.10 10.14 23.30L10.14 23.30Q10.08 23.66 10.35 24.04Q10.61 24.42 11.06 24.48L11.06 24.48L25.17 24.48Q25.37 24.48 25.58 24.59Q25.79 24.70 25.94 24.88Q26.10 25.06 26.17 25.27Q26.24 25.48 26.15 25.65L26.15 25.65Q26.21 25.82 25.93 26.09Q25.65 26.35 25.51 26.41L25.51 26.41L10.39 26.41Q10.00 26.30 9.62 26.04Q9.24 25.79 8.93 25.44Q8.62 25.09 8.43 24.70Q8.23 24.31 8.23 23.94L8.23 23.94L8.23 22.32Q8.26 21.96 8.50 21.55Q8.74 21.14 9.09 20.81Q9.44 20.47 9.84 20.25Q10.25 20.02 10.58 19.97L10.58 19.97L22.37 19.97Q22.57 19.94 22.86 19.91Q23.16 19.88 23.42 19.80Q23.69 19.72 23.88 19.53Q24.08 19.35 24.11 18.99L24.11 18.99Q24.11 18.82 24.12 18.62Q24.14 18.43 24.22 18.26L24.22 18.26L24.22 7.42Q24.22 7.20 24.46 6.91Q24.70 6.61 24.98 6.50ZM2.55 20.72L2.55 20.72Q3.25 20.61 3.72 21.45L3.72 21.45L3.72 27.86Q3.67 28.28 4.05 28.61Q4.42 28.93 4.82 28.84L4.82 28.84L5.12 28.96L25.17 28.96Q25.51 28.90 25.86 29.26Q26.21 29.63 26.15 30.02L26.15 30.02Q26.18 30.10 26.10 30.23Q26.01 30.36 25.89 30.50Q25.76 30.64 25.62 30.75Q25.48 30.86 25.40 30.89L25.40 30.89L4.40 30.89Q4.00 30.86 3.58 30.66Q3.16 30.47 2.79 30.16Q2.41 29.85 2.14 29.46Q1.88 29.07 1.79 28.62L1.79 28.62L1.79 21.45Q1.88 21.20 2.07 21.05Q2.27 20.89 2.55 20.72Z"/></svg><svg x="60.25" y="56.25"><path fill="red" stroke="none" transform="scale(1, 1)" d="M2.60 6.44L24.05 6.44Q24.36 6.50 24.71 6.72Q25.06 6.95 25.37 7.26Q25.68 7.56 25.90 7.91Q26.12 8.26 26.15 8.60L26.15 8.60L26.29 9.10L26.29 20.28Q25.90 20.84 25.51 20.84L25.51 20.84Q25.12 20.84 24.78 20.84L24.78 20.84Q24.75 20.61 24.56 20.44Q24.36 20.28 24.36 20.05L24.36 20.05L24.36 9.89Q24.30 9.72 24.29 9.50Q24.28 9.27 24.21 9.06Q24.14 8.85 24.01 8.68Q23.88 8.52 23.60 8.49L23.60 8.49L23.27 8.40L2.69 8.40Q2.32 8.38 2.06 8.00Q1.79 7.62 1.82 7.31L1.82 7.31Q1.90 7.09 2.11 6.84Q2.32 6.58 2.60 6.44L2.60 6.44ZM2.69 11.93L20.27 11.93Q20.44 12.02 20.62 12.14Q20.80 12.27 20.94 12.44Q21.08 12.60 21.15 12.77Q21.22 12.94 21.14 13.11L21.14 13.11Q21.20 13.25 20.93 13.53Q20.66 13.81 20.47 13.86L20.47 13.86L13.50 13.86L13.41 14.17Q13.75 14.68 14.17 15.18Q14.59 15.68 15.08 16.10Q15.57 16.52 16.07 16.82Q16.58 17.11 17.08 17.20L17.08 17.20Q17.30 17.36 17.54 17.43Q17.78 17.50 18.02 17.55Q18.26 17.59 18.49 17.66Q18.73 17.73 18.98 17.92L18.98 17.92Q19.26 17.92 19.67 17.98Q20.08 18.04 20.44 18.18Q20.80 18.32 21.04 18.61Q21.28 18.90 21.25 19.35L21.25 19.35Q21.22 19.74 20.82 19.94Q20.41 20.14 20.05 20.05L20.05 20.05Q18.54 19.83 17.11 19.34Q15.68 18.85 14.17 17.92L14.17 17.92Q13.94 17.90 13.62 17.63Q13.30 17.36 12.94 17.03Q12.57 16.69 12.25 16.34Q11.93 15.99 11.70 15.77L11.70 15.77Q11.03 16.66 10.30 17.27Q9.58 17.87 8.82 18.29Q8.06 18.71 7.29 18.97Q6.52 19.24 5.82 19.44L5.82 19.44Q5.07 19.66 4.31 19.83Q3.56 20.00 2.80 20.05L2.80 20.05Q2.63 20.08 2.45 19.97Q2.27 19.86 2.14 19.69Q2.02 19.52 1.95 19.32Q1.88 19.13 1.93 18.99L1.93 18.99Q2.16 18.46 2.52 18.27Q2.88 18.09 3.30 18.04Q3.72 17.98 4.16 17.92Q4.59 17.87 4.96 17.62L4.96 17.62Q5.77 17.50 6.57 17.15Q7.36 16.80 8.18 16.44L8.18 16.44Q8.79 15.82 9.35 15.21Q9.91 14.59 10.02 13.98L10.02 13.98L9.77 13.86L2.49 13.86Q2.35 13.78 2.10 13.44Q1.85 13.11 1.93 12.88L1.93 12.88Q1.99 12.58 2.18 12.37Q2.38 12.16 2.69 11.93L2.69 11.93ZM2.60 23.19L24.25 23.19Q24.53 23.22 24.85 23.34Q25.17 23.47 25.47 23.68Q25.76 23.89 25.98 24.17Q26.21 24.45 26.29 24.78L26.29 24.78L26.29 27.98Q26.15 28.54 25.77 29.21Q25.40 29.88 24.67 30.33L24.67 30.33Q24.30 30.55 23.97 30.71Q23.63 30.86 23.27 31L23.27 31L2.38 31Q2.04 30.83 1.85 30.52Q1.65 30.22 1.74 29.91L1.74 29.91Q1.74 29.68 2.00 29.42Q2.27 29.15 2.49 29.15L2.49 29.15L22.62 29.15Q23.10 29.07 23.46 28.77Q23.83 28.48 24.05 28.10Q24.28 27.72 24.36 27.30Q24.44 26.88 24.36 26.52L24.36 26.52Q24.50 26.02 24.16 25.57Q23.83 25.12 23.27 25.12L23.27 25.12L2.69 25.12Q2.52 25.12 2.34 25.01Q2.16 24.90 2.02 24.74Q1.88 24.59 1.82 24.41Q1.76 24.22 1.82 24.06L1.82 24.06Q1.90 23.75 2.11 23.55Q2.32 23.36 2.60 23.19L2.60 23.19Z"/></svg></svg>